<?xml version="1.0" standalone="no"?>
<!DOCTYPE svg PUBLIC "-//W3C//DTD SVG 20010904//EN"
 "http://www.w3.org/TR/2001/REC-SVG-20010904/DTD/svg10.dtd">
<svg version="1.0" xmlns="http://www.w3.org/2000/svg"
 width="300.000000pt" height="106.000000pt" viewBox="0 0 300.000000 106.000000"
 preserveAspectRatio="xMidYMid meet">
<metadata>
Created by potrace 1.10, written by Peter Selinger 2001-2011
</metadata>
<g transform="translate(0.000000,106.000000) scale(0.100000,-0.100000)"
fill="#000000" stroke="none">
<path d="M665 762 c-35 -7 -40 -21 -40 -125 -2 -168 -3 -177 -23 -177 -9 0
-23 9 -30 20 -9 14 -23 20 -50 20 -45 0 -62 -14 -62 -49 1 -83 115 -146 200
-111 29 12 74 56 82 82 3 7 22 -6 49 -34 34 -35 54 -47 86 -53 54 -9 108 9
147 48 30 29 30 29 39 8 12 -26 83 -61 125 -61 37 0 103 25 114 43 5 8 14 5
31 -11 31 -29 87 -30 105 -2 7 13 12 49 10 95 -2 80 13 115 38 94 10 -8 14
-36 14 -94 0 -66 3 -85 18 -97 28 -24 47 -27 80 -11 35 17 35 17 32 148 -3
120 -35 165 -124 173 -53 4 -54 5 -61 41 -10 51 -21 62 -63 55 -47 -8 -57 -21
-56 -74 0 -25 -2 -53 -4 -63 -4 -17 -7 -16 -29 7 -13 14 -36 28 -51 31 -15 4
-35 8 -45 10 -44 8 -137 -43 -137 -76 0 -7 -18 4 -39 25 -45 44 -87 56 -154
43 -38 -8 -55 -18 -82 -50 l-35 -41 0 81 c0 99 -16 118 -85 105z m55 -187 c-6
-197 -10 -206 -108 -213 -54 -4 -62 -2 -91 24 -17 16 -34 44 -37 62 -6 31 -6
32 30 32 29 0 38 -5 45 -24 13 -31 39 -40 67 -21 23 15 24 19 24 160 l0 145
38 0 37 0 -5 -165z m700 98 c0 -62 1 -65 18 -51 25 22 58 28 96 17 54 -15 65
-42 67 -165 l2 -109 -37 -3 -36 -3 0 95 c0 101 -10 126 -52 126 -46 0 -58 -26
-58 -127 l0 -93 -35 0 -35 0 0 190 0 190 35 0 35 0 0 -67z m-443 -44 c42 -16
65 -67 60 -138 -3 -59 -6 -66 -41 -98 -36 -34 -41 -35 -98 -31 -46 3 -64 10
-84 30 -46 45 -54 155 -15 206 33 45 108 58 178 31z m256 11 c24 0 67 -44 67
-70 0 -28 -49 -27 -73 1 -23 26 -72 23 -72 -5 0 -15 13 -24 58 -37 32 -10 67
-25 78 -35 28 -26 24 -70 -10 -105 -26 -26 -36 -29 -91 -29 -55 0 -65 3 -91
29 -16 16 -29 37 -29 45 0 23 55 20 89 -4 22 -17 32 -19 54 -11 48 19 30 41
-48 60 -65 16 -85 35 -85 81 0 53 59 96 115 85 11 -3 28 -5 38 -5z m87 -116
c0 -8 -5 -12 -10 -9 -6 4 -8 11 -5 16 9 14 15 11 15 -7z"/>
<path d="M870 570 c-27 -27 -28 -110 -2 -133 35 -32 82 -15 97 34 11 33 -4 87
-28 104 -29 20 -43 19 -67 -5z m70 -60 c0 -41 -10 -60 -30 -60 -43 0 -53 93
-12 103 25 5 42 -12 42 -43z"/>
<path d="M1780 757 c-32 -16 -36 -40 -34 -229 1 -111 5 -162 14 -173 10 -12
37 -15 135 -15 115 0 123 1 137 22 l15 22 29 -21 c64 -45 140 -40 202 13 l39
33 24 -26 c70 -75 189 -67 246 17 17 24 20 37 13 51 -7 12 -7 20 0 24 15 9 12
67 -5 108 -18 43 -68 87 -103 89 -78 4 -126 -13 -161 -58 l-21 -27 -33 37
c-24 27 -43 38 -79 45 -108 19 -188 -52 -188 -168 l0 -47 -67 0 -68 1 -3 140
c-2 128 -4 141 -23 158 -25 20 -36 21 -69 4z m65 -174 l0 -156 81 2 82 2 4
-30 c3 -17 2 -33 0 -36 -3 -3 -59 -5 -124 -5 l-118 0 0 190 0 190 38 0 37 0 0
-157z m357 57 c53 -15 88 -61 88 -116 l0 -45 -90 3 c-79 3 -90 1 -90 -14 0
-42 66 -64 101 -32 11 9 31 14 53 12 l36 -3 -22 -32 c-30 -42 -67 -57 -130
-51 -60 6 -91 34 -108 98 -25 94 25 173 120 189 3 1 22 -4 42 -9z m328 -19
c30 -22 47 -54 52 -101 l3 -35 -93 0 c-79 0 -92 -2 -92 -17 0 -41 73 -66 100
-33 12 14 80 22 80 9 0 -17 -36 -64 -57 -73 -30 -14 -93 -14 -127 -1 -75 28
-95 180 -31 240 44 42 114 46 165 11z"/>
<path d="M2132 574 c-41 -29 -28 -44 38 -44 57 0 60 1 50 20 -10 19 -40 40
-57 40 -5 0 -19 -7 -31 -16z"/>
<path d="M2422 574 c-40 -28 -28 -44 33 -44 41 0 55 4 55 14 0 16 -37 46 -55
46 -6 0 -21 -7 -33 -16z"/>
</g>
</svg>
